<svg width="20" height="17" viewBox="0 0 20 17" fill="none" xmlns="http://www.w3.org/2000/svg">
<path d="M19.8481 1.90916C19.1175 2.23359 18.3328 2.45191 17.5091 2.55038C18.3504 2.04656 18.9954 1.24885 19.2992 0.29771C18.513 0.764122 17.6412 1.10305 16.713 1.28626C15.9702 0.494656 14.9122 0 13.7412 0C11.4924 0 9.66946 1.82366 9.66946 4.07175C9.66946 4.39084 9.7061 4.70229 9.7748 4.99923C6.39083 4.82977 3.39084 3.20839 1.38168 0.744274C1.03206 1.3458 0.831297 2.04504 0.831297 2.79236C0.831297 4.20458 1.54962 5.45114 2.64198 6.18091C1.97481 6.15954 1.34656 5.97633 0.797709 5.67175C0.797709 5.68931 0.797709 5.70534 0.797709 5.7229C0.797709 7.69618 2.20076 9.34198 4.06412 9.71526C3.7229 9.80839 3.36259 9.85801 2.99084 9.85801C2.729 9.85801 2.47328 9.83205 2.22519 9.78549C2.74351 11.403 4.24732 12.5809 6.029 12.6137C4.63587 13.7061 2.88015 14.3572 0.971755 14.3572C0.643511 14.3572 0.319084 14.3382 0 14.3C1.80229 15.4549 3.94198 16.129 6.24198 16.129C13.732 16.129 17.8267 9.92442 17.8267 4.54351C17.8267 4.36717 17.8229 4.1916 17.8152 4.01679C18.6114 3.44198 19.3023 2.72519 19.8481 1.90916Z" fill="white"/>
</svg>
