<svg width="18" height="18" viewBox="0 0 18 18" fill="none" xmlns="http://www.w3.org/2000/svg">
<path d="M7.27188 0.609375C6.80703 0.609375 6.475 0.974609 6.475 1.40625V6.98438H3.55313C2.95547 6.98438 2.65664 7.71484 3.08828 8.14648L8.13516 13.1934C8.36758 13.4258 8.79922 13.4258 9.03164 13.1934L14.0785 8.14648C14.5102 7.71484 14.2113 6.98438 13.6137 6.98438H10.725V1.40625C10.725 0.974609 10.3598 0.609375 9.92813 0.609375H7.27188ZM17.1 13.0938C17.1 12.6621 16.7348 12.2969 16.3031 12.2969H11.4223L9.79531 13.9238C9.13125 14.6211 8.03555 14.6211 7.37148 13.9238L5.74453 12.2969H0.896875C0.432032 12.2969 0.1 12.6621 0.1 13.0938V16.8125C0.1 17.2773 0.432032 17.6094 0.896875 17.6094H16.3031C16.7348 17.6094 17.1 17.2773 17.1 16.8125V13.0938ZM12.9828 16.0156C12.9828 16.3809 12.684 16.6797 12.3188 16.6797C11.9535 16.6797 11.6547 16.3809 11.6547 16.0156C11.6547 15.6504 11.9535 15.3516 12.3188 15.3516C12.684 15.3516 12.9828 15.6504 12.9828 16.0156ZM15.1078 16.0156C15.1078 16.3809 14.809 16.6797 14.4438 16.6797C14.0785 16.6797 13.7797 16.3809 13.7797 16.0156C13.7797 15.6504 14.0785 15.3516 14.4438 15.3516C14.809 15.3516 15.1078 15.6504 15.1078 16.0156Z" fill="white"/>
</svg>
